<mxfile host="app.diagrams.net" agent="Mozilla/5.0 (Windows NT 10.0; Win64; x64; rv:138.0) Gecko/20100101 Firefox/138.0" version="27.0.1" pages="2">
  <diagram name="Page-1" id="_JDrC6Ps8bkxW6P-ZPD3">
    <mxGraphModel dx="925" dy="554" grid="1" gridSize="10" guides="1" tooltips="1" connect="1" arrows="1" fold="1" page="1" pageScale="1" pageWidth="3300" pageHeight="4681" math="0" shadow="0">
      <root>
        <mxCell id="0" />
        <mxCell id="1" parent="0" />
        <mxCell id="ijfkpujtPZkEFpg8izQ9-31" value="2a Classification with ANFIS" style="text;html=1;align=right;verticalAlign=top;whiteSpace=wrap;rounded=0;dashed=1;fillColor=#f5f5f5;fontColor=#333333;strokeColor=#666666;strokeWidth=2;" name="text" vertex="1" parent="1">
          <mxGeometry x="495" y="790" width="385" height="230" as="geometry" />
        </mxCell>
        <mxCell id="ijfkpujtPZkEFpg8izQ9-18" style="edgeStyle=orthogonalEdgeStyle;rounded=0;orthogonalLoop=1;jettySize=auto;html=1;exitX=0.5;exitY=1;exitDx=0;exitDy=0;entryX=0.5;entryY=0;entryDx=0;entryDy=0;align=right;" edge="1" parent="1" source="ijfkpujtPZkEFpg8izQ9-13" target="ijfkpujtPZkEFpg8izQ9-17">
          <mxGeometry relative="1" as="geometry" />
        </mxCell>
        <mxCell id="ijfkpujtPZkEFpg8izQ9-29" value="1a ANFIS Fine-tuning&amp;nbsp;&amp;nbsp;&amp;nbsp;&amp;nbsp;&amp;nbsp;&amp;nbsp;&amp;nbsp;&amp;nbsp; " style="text;html=1;align=right;verticalAlign=top;whiteSpace=wrap;rounded=0;dashed=1;fillColor=#f5f5f5;fontColor=#333333;strokeColor=#666666;strokeWidth=2;" name="text" vertex="1" parent="1">
          <mxGeometry x="370" y="560" width="270" height="220" as="geometry" />
        </mxCell>
        <mxCell id="ijfkpujtPZkEFpg8izQ9-27" value="2a Feature Extraction Using GLCM" style="text;html=1;align=left;verticalAlign=top;whiteSpace=wrap;rounded=0;dashed=1;fillColor=#f5f5f5;fontColor=#333333;strokeColor=#666666;strokeWidth=2;" name="text" vertex="1" parent="1">
          <mxGeometry x="370" y="360" width="390" height="190" as="geometry" />
        </mxCell>
        <mxCell id="ijfkpujtPZkEFpg8izQ9-26" value="1d Image Preprocessing" style="text;html=1;align=left;verticalAlign=top;whiteSpace=wrap;rounded=0;dashed=1;fillColor=#f5f5f5;fontColor=#333333;strokeColor=#666666;strokeWidth=2;" name="text" vertex="1" parent="1">
          <mxGeometry x="370" y="200" width="390" height="150" as="geometry" />
        </mxCell>
        <mxCell id="ijfkpujtPZkEFpg8izQ9-3" style="edgeStyle=orthogonalEdgeStyle;rounded=0;orthogonalLoop=1;jettySize=auto;html=1;exitX=1;exitY=0.5;exitDx=0;exitDy=0;entryX=0;entryY=0.5;entryDx=0;entryDy=0;" edge="1" parent="1" source="ijfkpujtPZkEFpg8izQ9-1" target="ijfkpujtPZkEFpg8izQ9-2">
          <mxGeometry relative="1" as="geometry" />
        </mxCell>
        <mxCell id="ijfkpujtPZkEFpg8izQ9-1" value="data:image&#xa;Raw Chest MRI&#xa;Images" style="rectangle;fillColor=#fff2cc;strokeColor=#d6b656;" name="data" vertex="1" parent="1">
          <mxGeometry x="340" y="230" width="100" height="50" as="geometry" />
        </mxCell>
        <mxCell id="ijfkpujtPZkEFpg8izQ9-5" style="edgeStyle=orthogonalEdgeStyle;rounded=0;orthogonalLoop=1;jettySize=auto;html=1;exitX=1;exitY=0.5;exitDx=0;exitDy=0;entryX=0.5;entryY=0;entryDx=0;entryDy=0;" edge="1" parent="1" source="ijfkpujtPZkEFpg8izQ9-2" target="ijfkpujtPZkEFpg8izQ9-4">
          <mxGeometry relative="1" as="geometry" />
        </mxCell>
        <mxCell id="ijfkpujtPZkEFpg8izQ9-2" value="transform" style="rounded=1;whiteSpace=wrap;html=1;arcSize=50;fillColor=#f8cecc;strokeColor=#b85450;" name="transform" vertex="1" parent="1">
          <mxGeometry x="520" y="230" width="100" height="50" as="geometry" />
        </mxCell>
        <mxCell id="ijfkpujtPZkEFpg8izQ9-28" style="edgeStyle=orthogonalEdgeStyle;rounded=0;orthogonalLoop=1;jettySize=auto;html=1;exitX=0;exitY=0.75;exitDx=0;exitDy=0;entryX=0.5;entryY=0;entryDx=0;entryDy=0;" edge="1" parent="1" source="ijfkpujtPZkEFpg8izQ9-4" target="ijfkpujtPZkEFpg8izQ9-6">
          <mxGeometry relative="1" as="geometry" />
        </mxCell>
        <mxCell id="ijfkpujtPZkEFpg8izQ9-4" value="data:image&#xa;Standardized&#xa;Images" style="rectangle;fillColor=#fff2cc;strokeColor=#d6b656;" name="data" vertex="1" parent="1">
          <mxGeometry x="650" y="330" width="100" height="50" as="geometry" />
        </mxCell>
        <mxCell id="ijfkpujtPZkEFpg8izQ9-6" value="infer:deduce" style="rounded=1;whiteSpace=wrap;html=1;arcSize=50;fillColor=#bac8d3;strokeColor=#23445d;" name="infer:deduce" vertex="1" parent="1">
          <mxGeometry x="520" y="430" width="100" height="50" as="geometry" />
        </mxCell>
        <mxCell id="ijfkpujtPZkEFpg8izQ9-9" style="edgeStyle=orthogonalEdgeStyle;rounded=0;orthogonalLoop=1;jettySize=auto;html=1;entryX=1;entryY=0.5;entryDx=0;entryDy=0;" edge="1" parent="1" source="ijfkpujtPZkEFpg8izQ9-8" target="ijfkpujtPZkEFpg8izQ9-6">
          <mxGeometry relative="1" as="geometry" />
        </mxCell>
        <mxCell id="ijfkpujtPZkEFpg8izQ9-8" value="model:statistical&#xa;GLCM" style="shape=hexagon;perimeter=hexagonPerimeter2;fillColor=#b0e3e6;strokeColor=#0e8088;" name="model" vertex="1" parent="1">
          <mxGeometry x="700" y="430" width="120" height="50" as="geometry" />
        </mxCell>
        <mxCell id="ijfkpujtPZkEFpg8izQ9-14" style="edgeStyle=orthogonalEdgeStyle;rounded=0;orthogonalLoop=1;jettySize=auto;html=1;exitX=0.5;exitY=1;exitDx=0;exitDy=0;entryX=0;entryY=0.5;entryDx=0;entryDy=0;" edge="1" parent="1" source="ijfkpujtPZkEFpg8izQ9-10" target="ijfkpujtPZkEFpg8izQ9-13">
          <mxGeometry relative="1" as="geometry" />
        </mxCell>
        <mxCell id="ijfkpujtPZkEFpg8izQ9-10" value="data&#xa;Feature Vector" style="rectangle;fillColor=#fff2cc;strokeColor=#d6b656;" name="data" vertex="1" parent="1">
          <mxGeometry x="390" y="530" width="100" height="50" as="geometry" />
        </mxCell>
        <mxCell id="ijfkpujtPZkEFpg8izQ9-12" value="&lt;div&gt;error&lt;/div&gt;&lt;div&gt;&amp;nbsp; --&lt;/div&gt;&lt;div&gt;|&lt;/div&gt;&lt;div&gt;v&lt;/div&gt;" style="text;html=1;align=center;verticalAlign=middle;whiteSpace=wrap;rounded=0;dashed=1;fillColor=#f5f5f5;fontColor=#333333;strokeColor=#666666;strokeWidth=2;" name="text" vertex="1" parent="1">
          <mxGeometry x="440" y="430" width="80" height="100" as="geometry" />
        </mxCell>
        <mxCell id="ijfkpujtPZkEFpg8izQ9-13" value="generate:train" style="rounded=1;whiteSpace=wrap;html=1;arcSize=50;fillColor=#e1d5e7;strokeColor=#9673a6;" name="generate:train" vertex="1" parent="1">
          <mxGeometry x="520" y="630" width="100" height="50" as="geometry" />
        </mxCell>
        <mxCell id="ijfkpujtPZkEFpg8izQ9-16" value="&lt;div&gt;error&lt;/div&gt;&lt;div&gt;&amp;nbsp;&amp;nbsp; |&lt;/div&gt;&lt;div&gt;&amp;lt;--&lt;/div&gt;" style="text;html=1;align=center;verticalAlign=middle;whiteSpace=wrap;rounded=0;dashed=1;fillColor=#f5f5f5;fontColor=#333333;strokeColor=#666666;strokeWidth=2;" name="text" vertex="1" parent="1">
          <mxGeometry x="620" y="480" width="140" height="200" as="geometry" />
        </mxCell>
        <mxCell id="ijfkpujtPZkEFpg8izQ9-20" style="edgeStyle=orthogonalEdgeStyle;rounded=0;orthogonalLoop=1;jettySize=auto;html=1;exitX=0.5;exitY=1;exitDx=0;exitDy=0;entryX=0;entryY=0.5;entryDx=0;entryDy=0;" edge="1" parent="1" source="ijfkpujtPZkEFpg8izQ9-17" target="ijfkpujtPZkEFpg8izQ9-19">
          <mxGeometry relative="1" as="geometry" />
        </mxCell>
        <mxCell id="ijfkpujtPZkEFpg8izQ9-17" value="model:hybrid&#xa;ANFIS" style="shape=hexagon;perimeter=hexagonPerimeter2;fillColor=#b0e3e6;strokeColor=#0e8088;" name="model" vertex="1" parent="1">
          <mxGeometry x="510" y="760" width="120" height="50" as="geometry" />
        </mxCell>
        <mxCell id="ijfkpujtPZkEFpg8izQ9-25" style="edgeStyle=orthogonalEdgeStyle;rounded=0;orthogonalLoop=1;jettySize=auto;html=1;exitX=1;exitY=0.5;exitDx=0;exitDy=0;entryX=0;entryY=0.5;entryDx=0;entryDy=0;" edge="1" parent="1" source="ijfkpujtPZkEFpg8izQ9-19" target="ijfkpujtPZkEFpg8izQ9-24">
          <mxGeometry relative="1" as="geometry" />
        </mxCell>
        <mxCell id="ijfkpujtPZkEFpg8izQ9-19" value="infer:deduce" style="rounded=1;whiteSpace=wrap;html=1;arcSize=50;fillColor=#bac8d3;strokeColor=#23445d;" name="infer:deduce" vertex="1" parent="1">
          <mxGeometry x="650" y="860" width="100" height="50" as="geometry" />
        </mxCell>
        <mxCell id="ijfkpujtPZkEFpg8izQ9-23" style="edgeStyle=orthogonalEdgeStyle;rounded=0;orthogonalLoop=1;jettySize=auto;html=1;entryX=0.5;entryY=1;entryDx=0;entryDy=0;" edge="1" parent="1" source="ijfkpujtPZkEFpg8izQ9-22" target="ijfkpujtPZkEFpg8izQ9-19">
          <mxGeometry relative="1" as="geometry" />
        </mxCell>
        <mxCell id="ijfkpujtPZkEFpg8izQ9-22" value="data:image&#xa;Patient Chest MRI&#xa;Images" style="rectangle;fillColor=#fff2cc;strokeColor=#d6b656;" name="data" vertex="1" parent="1">
          <mxGeometry x="650" y="990" width="100" height="50" as="geometry" />
        </mxCell>
        <mxCell id="ijfkpujtPZkEFpg8izQ9-24" value="symbol&#xa;COVID-19&#xa;Prediction" style="rectangle;fillColor=#dae8fc;strokeColor=#6c8ebf;" name="symbol" vertex="1" parent="1">
          <mxGeometry x="830" y="860" width="100" height="50" as="geometry" />
        </mxCell>
      </root>
    </mxGraphModel>
  </diagram>
  <diagram id="9QlJrdT18ojF3zuFsVGY" name="Page-2">
    <mxGraphModel dx="786" dy="471" grid="1" gridSize="10" guides="1" tooltips="1" connect="1" arrows="1" fold="1" page="1" pageScale="1" pageWidth="3300" pageHeight="4681" math="0" shadow="0">
      <root>
        <mxCell id="0" />
        <mxCell id="1" parent="0" />
        <mxCell id="fk0fapWmMtLd8G8jYV8Z-1" value="2a Classification with ANFIS" style="text;html=1;align=right;verticalAlign=top;whiteSpace=wrap;rounded=0;dashed=1;fillColor=#f5f5f5;fontColor=#333333;strokeColor=#666666;strokeWidth=2;" name="text" vertex="1" parent="1">
          <mxGeometry x="495" y="790" width="385" height="230" as="geometry" />
        </mxCell>
        <mxCell id="fk0fapWmMtLd8G8jYV8Z-2" style="edgeStyle=orthogonalEdgeStyle;rounded=0;orthogonalLoop=1;jettySize=auto;html=1;exitX=0.5;exitY=1;exitDx=0;exitDy=0;entryX=0.5;entryY=0;entryDx=0;entryDy=0;align=right;" edge="1" parent="1" source="fk0fapWmMtLd8G8jYV8Z-18" target="fk0fapWmMtLd8G8jYV8Z-21">
          <mxGeometry relative="1" as="geometry" />
        </mxCell>
        <mxCell id="fk0fapWmMtLd8G8jYV8Z-3" value="1a ANFIS Fine-tuning&amp;nbsp;&amp;nbsp;&amp;nbsp;&amp;nbsp;&amp;nbsp;&amp;nbsp;&amp;nbsp;&amp;nbsp; " style="text;html=1;align=right;verticalAlign=top;whiteSpace=wrap;rounded=0;dashed=1;fillColor=#f5f5f5;fontColor=#333333;strokeColor=#666666;strokeWidth=2;" name="text" vertex="1" parent="1">
          <mxGeometry x="370" y="560" width="270" height="220" as="geometry" />
        </mxCell>
        <mxCell id="fk0fapWmMtLd8G8jYV8Z-4" value="2a Feature Extraction Using GLCM" style="text;html=1;align=left;verticalAlign=top;whiteSpace=wrap;rounded=0;dashed=1;fillColor=#f5f5f5;fontColor=#333333;strokeColor=#666666;strokeWidth=2;" name="text" vertex="1" parent="1">
          <mxGeometry x="370" y="360" width="390" height="190" as="geometry" />
        </mxCell>
        <mxCell id="fk0fapWmMtLd8G8jYV8Z-5" value="1d Image Preprocessing" style="text;html=1;align=left;verticalAlign=top;whiteSpace=wrap;rounded=0;dashed=1;fillColor=#f5f5f5;fontColor=#333333;strokeColor=#666666;strokeWidth=2;" name="text" vertex="1" parent="1">
          <mxGeometry x="370" y="200" width="390" height="150" as="geometry" />
        </mxCell>
        <mxCell id="fk0fapWmMtLd8G8jYV8Z-6" style="edgeStyle=orthogonalEdgeStyle;rounded=0;orthogonalLoop=1;jettySize=auto;html=1;exitX=1;exitY=0.5;exitDx=0;exitDy=0;entryX=0;entryY=0.5;entryDx=0;entryDy=0;" edge="1" parent="1" source="fk0fapWmMtLd8G8jYV8Z-7" target="fk0fapWmMtLd8G8jYV8Z-9">
          <mxGeometry relative="1" as="geometry" />
        </mxCell>
        <mxCell id="fk0fapWmMtLd8G8jYV8Z-7" value="data:image&#xa;Raw Chest MRI&#xa;Images" style="rectangle;fillColor=#fff2cc;strokeColor=#d6b656;" name="data" vertex="1" parent="1">
          <mxGeometry x="340" y="230" width="100" height="50" as="geometry" />
        </mxCell>
        <mxCell id="fk0fapWmMtLd8G8jYV8Z-8" style="edgeStyle=orthogonalEdgeStyle;rounded=0;orthogonalLoop=1;jettySize=auto;html=1;exitX=1;exitY=0.5;exitDx=0;exitDy=0;entryX=0.5;entryY=0;entryDx=0;entryDy=0;" edge="1" parent="1" source="fk0fapWmMtLd8G8jYV8Z-9" target="fk0fapWmMtLd8G8jYV8Z-11">
          <mxGeometry relative="1" as="geometry" />
        </mxCell>
        <mxCell id="fk0fapWmMtLd8G8jYV8Z-9" value="transform" style="rounded=1;whiteSpace=wrap;html=1;arcSize=50;fillColor=#f8cecc;strokeColor=#b85450;" name="transform" vertex="1" parent="1">
          <mxGeometry x="520" y="230" width="100" height="50" as="geometry" />
        </mxCell>
        <mxCell id="fk0fapWmMtLd8G8jYV8Z-10" style="edgeStyle=orthogonalEdgeStyle;rounded=0;orthogonalLoop=1;jettySize=auto;html=1;exitX=0;exitY=0.75;exitDx=0;exitDy=0;entryX=0.5;entryY=0;entryDx=0;entryDy=0;" edge="1" parent="1" source="fk0fapWmMtLd8G8jYV8Z-11" target="fk0fapWmMtLd8G8jYV8Z-12">
          <mxGeometry relative="1" as="geometry" />
        </mxCell>
        <mxCell id="fk0fapWmMtLd8G8jYV8Z-11" value="data:image&#xa;Standardized&#xa;Images" style="rectangle;fillColor=#fff2cc;strokeColor=#d6b656;" name="data" vertex="1" parent="1">
          <mxGeometry x="650" y="330" width="100" height="50" as="geometry" />
        </mxCell>
        <mxCell id="fk0fapWmMtLd8G8jYV8Z-12" value="infer:deduce" style="rounded=1;whiteSpace=wrap;html=1;arcSize=50;fillColor=#bac8d3;strokeColor=#23445d;" name="infer:deduce" vertex="1" parent="1">
          <mxGeometry x="520" y="430" width="100" height="50" as="geometry" />
        </mxCell>
        <mxCell id="fk0fapWmMtLd8G8jYV8Z-13" style="edgeStyle=orthogonalEdgeStyle;rounded=0;orthogonalLoop=1;jettySize=auto;html=1;entryX=1;entryY=0.5;entryDx=0;entryDy=0;" edge="1" parent="1" source="fk0fapWmMtLd8G8jYV8Z-14" target="fk0fapWmMtLd8G8jYV8Z-12">
          <mxGeometry relative="1" as="geometry" />
        </mxCell>
        <mxCell id="fk0fapWmMtLd8G8jYV8Z-14" value="model:statistical&#xa;GLCM" style="shape=hexagon;perimeter=hexagonPerimeter2;fillColor=#b0e3e6;strokeColor=#0e8088;" name="model" vertex="1" parent="1">
          <mxGeometry x="700" y="430" width="120" height="50" as="geometry" />
        </mxCell>
        <mxCell id="fk0fapWmMtLd8G8jYV8Z-15" style="edgeStyle=orthogonalEdgeStyle;rounded=0;orthogonalLoop=1;jettySize=auto;html=1;exitX=0.5;exitY=1;exitDx=0;exitDy=0;entryX=0;entryY=0.5;entryDx=0;entryDy=0;" edge="1" parent="1" source="fk0fapWmMtLd8G8jYV8Z-16" target="fk0fapWmMtLd8G8jYV8Z-18">
          <mxGeometry relative="1" as="geometry" />
        </mxCell>
        <mxCell id="fk0fapWmMtLd8G8jYV8Z-16" value="data&#xa;Feature Vector" style="rectangle;fillColor=#fff2cc;strokeColor=#d6b656;" name="data" vertex="1" parent="1">
          <mxGeometry x="390" y="530" width="100" height="50" as="geometry" />
        </mxCell>
        <mxCell id="fk0fapWmMtLd8G8jYV8Z-17" value="&lt;div&gt;error&lt;/div&gt;&lt;div&gt;&amp;nbsp; --&lt;/div&gt;&lt;div&gt;|&lt;/div&gt;&lt;div&gt;v&lt;/div&gt;" style="text;html=1;align=center;verticalAlign=middle;whiteSpace=wrap;rounded=0;dashed=1;fillColor=#f5f5f5;fontColor=#333333;strokeColor=#666666;strokeWidth=2;" name="text" vertex="1" parent="1">
          <mxGeometry x="440" y="430" width="80" height="100" as="geometry" />
        </mxCell>
        <mxCell id="fk0fapWmMtLd8G8jYV8Z-18" value="generate:train" style="rounded=1;whiteSpace=wrap;html=1;arcSize=50;fillColor=#e1d5e7;strokeColor=#9673a6;" name="generate:train" vertex="1" parent="1">
          <mxGeometry x="520" y="630" width="100" height="50" as="geometry" />
        </mxCell>
        <mxCell id="fk0fapWmMtLd8G8jYV8Z-19" value="&lt;div&gt;error&lt;/div&gt;&lt;div&gt;&amp;nbsp;&amp;nbsp; |&lt;/div&gt;&lt;div&gt;&amp;lt;--&lt;/div&gt;" style="text;html=1;align=center;verticalAlign=middle;whiteSpace=wrap;rounded=0;dashed=1;fillColor=#f5f5f5;fontColor=#333333;strokeColor=#666666;strokeWidth=2;" name="text" vertex="1" parent="1">
          <mxGeometry x="620" y="480" width="140" height="200" as="geometry" />
        </mxCell>
        <mxCell id="fk0fapWmMtLd8G8jYV8Z-20" style="edgeStyle=orthogonalEdgeStyle;rounded=0;orthogonalLoop=1;jettySize=auto;html=1;exitX=0.5;exitY=1;exitDx=0;exitDy=0;entryX=0;entryY=0.5;entryDx=0;entryDy=0;" edge="1" parent="1" source="fk0fapWmMtLd8G8jYV8Z-21" target="fk0fapWmMtLd8G8jYV8Z-23">
          <mxGeometry relative="1" as="geometry" />
        </mxCell>
        <mxCell id="fk0fapWmMtLd8G8jYV8Z-21" value="model:hybrid&#xa;ANFIS" style="shape=hexagon;perimeter=hexagonPerimeter2;fillColor=#b0e3e6;strokeColor=#0e8088;" name="model" vertex="1" parent="1">
          <mxGeometry x="510" y="760" width="120" height="50" as="geometry" />
        </mxCell>
        <mxCell id="fk0fapWmMtLd8G8jYV8Z-22" style="edgeStyle=orthogonalEdgeStyle;rounded=0;orthogonalLoop=1;jettySize=auto;html=1;exitX=1;exitY=0.5;exitDx=0;exitDy=0;entryX=0;entryY=0.5;entryDx=0;entryDy=0;" edge="1" parent="1" source="fk0fapWmMtLd8G8jYV8Z-23" target="fk0fapWmMtLd8G8jYV8Z-26">
          <mxGeometry relative="1" as="geometry" />
        </mxCell>
        <mxCell id="fk0fapWmMtLd8G8jYV8Z-23" value="infer:deduce" style="rounded=1;whiteSpace=wrap;html=1;arcSize=50;fillColor=#bac8d3;strokeColor=#23445d;" name="infer:deduce" vertex="1" parent="1">
          <mxGeometry x="650" y="860" width="100" height="50" as="geometry" />
        </mxCell>
        <mxCell id="fk0fapWmMtLd8G8jYV8Z-24" style="edgeStyle=orthogonalEdgeStyle;rounded=0;orthogonalLoop=1;jettySize=auto;html=1;entryX=0.5;entryY=1;entryDx=0;entryDy=0;" edge="1" parent="1" source="fk0fapWmMtLd8G8jYV8Z-25" target="fk0fapWmMtLd8G8jYV8Z-23">
          <mxGeometry relative="1" as="geometry" />
        </mxCell>
        <mxCell id="fk0fapWmMtLd8G8jYV8Z-25" value="data:image&#xa;Patient Chest MRI&#xa;Images" style="rectangle;fillColor=#fff2cc;strokeColor=#d6b656;" name="data" vertex="1" parent="1">
          <mxGeometry x="650" y="990" width="100" height="50" as="geometry" />
        </mxCell>
        <mxCell id="fk0fapWmMtLd8G8jYV8Z-26" value="symbol&#xa;COVID-19&#xa;Prediction" style="rectangle;fillColor=#dae8fc;strokeColor=#6c8ebf;" name="symbol" vertex="1" parent="1">
          <mxGeometry x="830" y="860" width="100" height="50" as="geometry" />
        </mxCell>
      </root>
    </mxGraphModel>
  </diagram>
</mxfile>
